<svg width="302" height="446" viewBox="0 0 302 446" fill="none" xmlns="http://www.w3.org/2000/svg">
<g filter="url(#filter0_i_126:2)">
<path d="M19.2597 123.96C15.7797 123.96 12.3797 123.58 9.05969 122.82C5.77969 122.02 3.07969 120.96 0.959688 119.64L5.51969 109.32C7.51969 110.48 9.75969 111.42 12.2397 112.14C14.7197 112.82 17.0997 113.16 19.3797 113.16C21.3397 113.16 22.7397 112.98 23.5797 112.62C24.4197 112.22 24.8397 111.64 24.8397 110.88C24.8397 110 24.2797 109.34 23.1597 108.9C22.0797 108.46 20.2797 107.98 17.7597 107.46C14.5197 106.78 11.8197 106.06 9.65969 105.3C7.49969 104.5 5.61969 103.22 4.01969 101.46C2.41969 99.66 1.61969 97.24 1.61969 94.2C1.61969 91.56 2.35969 89.16 3.83969 87C5.31969 84.84 7.51969 83.14 10.4397 81.9C13.3997 80.66 16.9797 80.04 21.1797 80.04C24.0597 80.04 26.8797 80.36 29.6397 81C32.4397 81.6 34.8997 82.5 37.0197 83.7L32.7597 93.96C28.6397 91.88 24.7397 90.84 21.0597 90.84C17.4197 90.84 15.5997 91.72 15.5997 93.48C15.5997 94.32 16.1397 94.96 17.2197 95.4C18.2997 95.8 20.0797 96.24 22.5597 96.72C25.7597 97.32 28.4597 98.02 30.6597 98.82C32.8597 99.58 34.7597 100.84 36.3597 102.6C37.9997 104.36 38.8197 106.76 38.8197 109.8C38.8197 112.44 38.0797 114.84 36.5997 117C35.1197 119.12 32.8997 120.82 29.9397 122.1C27.0197 123.34 23.4597 123.96 19.2597 123.96ZM66.7933 121.86C64.7533 123.02 61.9733 123.6 58.4533 123.6C53.8533 123.6 50.3133 122.5 47.8333 120.3C45.3533 118.06 44.1133 114.72 44.1133 110.28V101.88H39.6133V91.98H44.1133V82.8H57.6733V91.98H64.3933V101.88H57.6733V110.16C57.6733 111.16 57.9333 111.94 58.4533 112.5C58.9733 113.06 59.6533 113.34 60.4933 113.34C61.6533 113.34 62.6733 113.04 63.5533 112.44L66.7933 121.86ZM83.1109 93.72C85.5109 90.96 89.0509 89.58 93.7309 89.58V101.58C92.6509 101.42 91.6509 101.34 90.7309 101.34C86.0909 101.34 83.7709 103.7 83.7709 108.42V123H70.2109V90.18H83.1109V93.72ZM114.621 123.6C110.981 123.6 107.701 122.88 104.781 121.44C101.901 119.96 99.6413 117.94 98.0013 115.38C96.3613 112.78 95.5413 109.84 95.5413 106.56C95.5413 103.28 96.3613 100.36 98.0013 97.8C99.6413 95.2 101.901 93.18 104.781 91.74C107.701 90.3 110.981 89.58 114.621 89.58C118.301 89.58 121.581 90.3 124.461 91.74C127.381 93.18 129.641 95.2 131.241 97.8C132.881 100.36 133.701 103.28 133.701 106.56C133.701 109.84 132.881 112.78 131.241 115.38C129.641 117.94 127.381 119.96 124.461 121.44C121.581 122.88 118.301 123.6 114.621 123.6ZM114.621 113.04C116.181 113.04 117.461 112.48 118.461 111.36C119.461 110.2 119.961 108.6 119.961 106.56C119.961 104.52 119.461 102.94 118.461 101.82C117.461 100.7 116.181 100.14 114.621 100.14C113.061 100.14 111.781 100.7 110.781 101.82C109.781 102.94 109.281 104.52 109.281 106.56C109.281 108.6 109.781 110.2 110.781 111.36C111.781 112.48 113.061 113.04 114.621 113.04ZM162.125 121.86C160.085 123.02 157.305 123.6 153.785 123.6C149.185 123.6 145.645 122.5 143.165 120.3C140.685 118.06 139.445 114.72 139.445 110.28V101.88H134.945V91.98H139.445V82.8H153.005V91.98H159.725V101.88H153.005V110.16C153.005 111.16 153.265 111.94 153.785 112.5C154.305 113.06 154.985 113.34 155.825 113.34C156.985 113.34 158.005 113.04 158.885 112.44L162.125 121.86ZM188.343 89.58C192.383 89.58 195.623 90.8 198.063 93.24C200.543 95.68 201.783 99.36 201.783 104.28V123H188.223V106.62C188.223 102.86 186.883 100.98 184.203 100.98C182.683 100.98 181.443 101.52 180.483 102.6C179.563 103.64 179.103 105.3 179.103 107.58V123H165.543V78.48H179.103V92.82C181.623 90.66 184.703 89.58 188.343 89.58ZM243.178 106.56C243.178 106.76 243.118 107.82 242.998 109.74H220.198C220.678 110.98 221.478 111.94 222.598 112.62C223.718 113.26 225.118 113.58 226.798 113.58C228.238 113.58 229.438 113.4 230.398 113.04C231.398 112.68 232.478 112.06 233.638 111.18L240.718 118.32C237.518 121.84 232.738 123.6 226.378 123.6C222.418 123.6 218.938 122.88 215.938 121.44C212.938 119.96 210.618 117.92 208.978 115.32C207.338 112.72 206.518 109.8 206.518 106.56C206.518 103.28 207.318 100.36 208.918 97.8C210.558 95.2 212.778 93.18 215.578 91.74C218.418 90.3 221.598 89.58 225.118 89.58C228.438 89.58 231.458 90.24 234.178 91.56C236.938 92.88 239.118 94.82 240.718 97.38C242.358 99.94 243.178 103 243.178 106.56ZM225.238 98.82C223.838 98.82 222.678 99.2 221.758 99.96C220.838 100.72 220.238 101.8 219.958 103.2H230.518C230.238 101.84 229.638 100.78 228.718 100.02C227.798 99.22 226.638 98.82 225.238 98.82ZM260.357 93.72C262.757 90.96 266.297 89.58 270.977 89.58V101.58C269.897 101.42 268.897 101.34 267.977 101.34C263.337 101.34 261.017 103.7 261.017 108.42V123H247.457V90.18H260.357V93.72Z" fill="#1C541C"/>
</g>
<g filter="url(#filter1_d_126:2)">
<path d="M4.15 37H20.05C23.85 37 27.2 37.7333 30.1 39.2C33.0333 40.6333 35.3 42.6667 36.9 45.3C38.5333 47.9333 39.35 51 39.35 54.5C39.35 58 38.5333 61.0667 36.9 63.7C35.3 66.3333 33.0333 68.3833 30.1 69.85C27.2 71.2833 23.85 72 20.05 72H4.15V37ZM19.65 65.35C23.15 65.35 25.9333 64.3833 28 62.45C30.1 60.4833 31.15 57.8333 31.15 54.5C31.15 51.1667 30.1 48.5333 28 46.6C25.9333 44.6333 23.15 43.65 19.65 43.65H12.25V65.35H19.65ZM55.7586 44.7C59.9253 44.7 63.1253 45.7 65.3586 47.7C67.5919 49.6667 68.7086 52.65 68.7086 56.65V72H61.4086V68.65C59.9419 71.15 57.2086 72.4 53.2086 72.4C51.1419 72.4 49.3419 72.05 47.8086 71.35C46.3086 70.65 45.1586 69.6833 44.3586 68.45C43.5586 67.2167 43.1586 65.8167 43.1586 64.25C43.1586 61.75 44.0919 59.7833 45.9586 58.35C47.8586 56.9167 50.7753 56.2 54.7086 56.2H60.9086C60.9086 54.5 60.3919 53.2 59.3586 52.3C58.3253 51.3667 56.7753 50.9 54.7086 50.9C53.2753 50.9 51.8586 51.1333 50.4586 51.6C49.0919 52.0333 47.9253 52.6333 46.9586 53.4L44.1586 47.95C45.6253 46.9167 47.3753 46.1167 49.4086 45.55C51.4753 44.9833 53.5919 44.7 55.7586 44.7ZM55.1586 67.15C56.4919 67.15 57.6753 66.85 58.7086 66.25C59.7419 65.6167 60.4753 64.7 60.9086 63.5V60.75H55.5586C52.3586 60.75 50.7586 61.8 50.7586 63.9C50.7586 64.9 51.1419 65.7 51.9086 66.3C52.7086 66.8667 53.7919 67.15 55.1586 67.15ZM101.98 45.1L90.6297 72H82.5797L71.2797 45.1H79.3297L86.7797 63.4L94.4797 45.1H101.98ZM105.163 45.1H112.963V72H105.163V45.1ZM109.063 41.35C107.629 41.35 106.463 40.9333 105.563 40.1C104.663 39.2667 104.213 38.2333 104.213 37C104.213 35.7667 104.663 34.7333 105.563 33.9C106.463 33.0667 107.629 32.65 109.063 32.65C110.496 32.65 111.663 33.05 112.563 33.85C113.463 34.65 113.913 35.65 113.913 36.85C113.913 38.15 113.463 39.2333 112.563 40.1C111.663 40.9333 110.496 41.35 109.063 41.35ZM147.602 34.9V72H140.152V68.9C138.218 71.2333 135.418 72.4 131.752 72.4C129.218 72.4 126.918 71.8333 124.852 70.7C122.818 69.5667 121.218 67.95 120.052 65.85C118.885 63.75 118.302 61.3167 118.302 58.55C118.302 55.7833 118.885 53.35 120.052 51.25C121.218 49.15 122.818 47.5333 124.852 46.4C126.918 45.2667 129.218 44.7 131.752 44.7C135.185 44.7 137.868 45.7833 139.802 47.95V34.9H147.602ZM133.102 66C135.068 66 136.702 65.3333 138.002 64C139.302 62.6333 139.952 60.8167 139.952 58.55C139.952 56.2833 139.302 54.4833 138.002 53.15C136.702 51.7833 135.068 51.1 133.102 51.1C131.102 51.1 129.452 51.7833 128.152 53.15C126.852 54.4833 126.202 56.2833 126.202 58.55C126.202 60.8167 126.852 62.6333 128.152 64C129.452 65.3333 131.102 66 133.102 66Z" fill="#444444"/>
</g>
<g filter="url(#filter2_d_126:2)">
<path d="M173.626 170.756C169.666 170.756 166.102 169.928 162.934 168.272C159.802 166.58 157.336 164.24 155.536 161.252C153.736 158.264 152.836 154.88 152.836 151.1C152.836 147.32 153.736 143.936 155.536 140.948C157.336 137.96 159.802 135.638 162.934 133.982C166.102 132.29 169.666 131.444 173.626 131.444C177.082 131.444 180.196 132.056 182.968 133.28C185.74 134.504 188.044 136.268 189.88 138.572L183.076 144.728C180.628 141.776 177.658 140.3 174.166 140.3C172.114 140.3 170.278 140.75 168.658 141.65C167.074 142.55 165.832 143.828 164.932 145.484C164.068 147.104 163.636 148.976 163.636 151.1C163.636 153.224 164.068 155.114 164.932 156.77C165.832 158.39 167.074 159.65 168.658 160.55C170.278 161.45 172.114 161.9 174.166 161.9C177.658 161.9 180.628 160.424 183.076 157.472L189.88 163.628C188.044 165.932 185.74 167.696 182.968 168.92C180.196 170.144 177.082 170.756 173.626 170.756ZM211.927 132.2C215.347 132.2 218.317 132.776 220.837 133.928C223.357 135.044 225.301 136.664 226.669 138.788C228.037 140.876 228.721 143.342 228.721 146.186C228.721 149.03 228.037 151.496 226.669 153.584C225.301 155.672 223.357 157.292 220.837 158.444C218.317 159.56 215.347 160.118 211.927 160.118H205.339V170H194.647V132.2H211.927ZM211.279 151.694C213.475 151.694 215.131 151.226 216.247 150.29C217.363 149.318 217.921 147.95 217.921 146.186C217.921 144.422 217.363 143.054 216.247 142.082C215.131 141.11 213.475 140.624 211.279 140.624H205.339V151.694H211.279ZM257.362 162.656H241.378L238.408 170H227.5L244.186 132.2H254.716L271.456 170H260.332L257.362 162.656ZM254.23 154.772L249.37 142.676L244.51 154.772H254.23Z" fill="#444444"/>
</g>
<g filter="url(#filter3_d_126:2)">
<path d="M154 62V53H157.5V49.5H169V54.5H185V72.9892H193V36.4999C193 8 225.886 3 246.5 3V36.4999C246.5 36.4999 296.5 25 296.5 90.5C296.5 156 296.5 441.5 296.5 441.5" stroke="#C4C4C4" stroke-width="2.5"/>
<path d="M154 62V53H157.5V49.5H169V54.5H185V72.9892H193V36.4999C193 8 225.886 3 246.5 3V36.4999C246.5 36.4999 296.5 25 296.5 90.5C296.5 156 296.5 441.5 296.5 441.5" stroke="#444444" stroke-width="2.5"/>
</g>
<defs>
<filter id="filter0_i_126:2" x="0.959688" y="78.48" width="270.017" height="48.48" filterUnits="userSpaceOnUse" color-interpolation-filters="sRGB">
<feFlood flood-opacity="0" result="BackgroundImageFix"/>
<feBlend mode="normal" in="SourceGraphic" in2="BackgroundImageFix" result="shape"/>
<feColorMatrix in="SourceAlpha" type="matrix" values="0 0 0 0 0 0 0 0 0 0 0 0 0 0 0 0 0 0 127 0" result="hardAlpha"/>
<feOffset dy="4"/>
<feGaussianBlur stdDeviation="1.5"/>
<feComposite in2="hardAlpha" operator="arithmetic" k2="-1" k3="1"/>
<feColorMatrix type="matrix" values="0 0 0 0 0.116667 0 0 0 0 0.116667 0 0 0 0 0.116667 0 0 0 0.2 0"/>
<feBlend mode="normal" in2="shape" result="effect1_innerShadow_126:2"/>
</filter>
<filter id="filter1_d_126:2" x="2.15" y="31.15" width="149.452" height="45.75" filterUnits="userSpaceOnUse" color-interpolation-filters="sRGB">
<feFlood flood-opacity="0" result="BackgroundImageFix"/>
<feColorMatrix in="SourceAlpha" type="matrix" values="0 0 0 0 0 0 0 0 0 0 0 0 0 0 0 0 0 0 127 0" result="hardAlpha"/>
<feOffset dx="1" dy="1.5"/>
<feGaussianBlur stdDeviation="1.5"/>
<feComposite in2="hardAlpha" operator="out"/>
<feColorMatrix type="matrix" values="0 0 0 0 0 0 0 0 0 0 0 0 0 0 0 0 0 0 0.15 0"/>
<feBlend mode="normal" in2="BackgroundImageFix" result="effect1_dropShadow_126:2"/>
<feBlend mode="normal" in="SourceGraphic" in2="effect1_dropShadow_126:2" result="shape"/>
</filter>
<filter id="filter2_d_126:2" x="150.836" y="129.944" width="124.62" height="45.312" filterUnits="userSpaceOnUse" color-interpolation-filters="sRGB">
<feFlood flood-opacity="0" result="BackgroundImageFix"/>
<feColorMatrix in="SourceAlpha" type="matrix" values="0 0 0 0 0 0 0 0 0 0 0 0 0 0 0 0 0 0 127 0" result="hardAlpha"/>
<feOffset dx="1" dy="1.5"/>
<feGaussianBlur stdDeviation="1.5"/>
<feComposite in2="hardAlpha" operator="out"/>
<feColorMatrix type="matrix" values="0 0 0 0 0 0 0 0 0 0 0 0 0 0 0 0 0 0 0.15 0"/>
<feBlend mode="normal" in2="BackgroundImageFix" result="effect1_dropShadow_126:2"/>
<feBlend mode="normal" in="SourceGraphic" in2="effect1_dropShadow_126:2" result="shape"/>
</filter>
<filter id="filter3_d_126:2" x="150.75" y="0.25" width="151" height="445.75" filterUnits="userSpaceOnUse" color-interpolation-filters="sRGB">
<feFlood flood-opacity="0" result="BackgroundImageFix"/>
<feColorMatrix in="SourceAlpha" type="matrix" values="0 0 0 0 0 0 0 0 0 0 0 0 0 0 0 0 0 0 127 0" result="hardAlpha"/>
<feOffset dx="1" dy="1.5"/>
<feGaussianBlur stdDeviation="1.5"/>
<feComposite in2="hardAlpha" operator="out"/>
<feColorMatrix type="matrix" values="0 0 0 0 0 0 0 0 0 0 0 0 0 0 0 0 0 0 0.15 0"/>
<feBlend mode="normal" in2="BackgroundImageFix" result="effect1_dropShadow_126:2"/>
<feBlend mode="normal" in="SourceGraphic" in2="effect1_dropShadow_126:2" result="shape"/>
</filter>
</defs>
</svg>
